<svg width="20" height="20" viewBox="0 0 20 20" fill="none" xmlns="http://www.w3.org/2000/svg">
<path d="M17.4548 2.90154H15.3953V0.84198H5.09751V2.90154H3.03795C1.90519 2.90154 0.978394 3.82834 0.978394 4.96109V5.99087C0.978394 8.6168 2.95557 10.7587 5.49912 11.078C6.14788 12.6226 7.53808 13.7863 9.21662 14.1261V17.3184H5.09751V19.378H15.3953V17.3184H11.2762V14.1261C12.9547 13.7863 14.3449 12.6226 14.9937 11.078C17.5372 10.7587 19.5144 8.6168 19.5144 5.99087V4.96109C19.5144 3.82834 18.5876 2.90154 17.4548 2.90154ZM3.03795 5.99087V4.96109H5.09751V8.89484C3.90296 8.46234 3.03795 7.32958 3.03795 5.99087ZM10.2464 12.1695C8.54726 12.1695 7.15706 10.7793 7.15706 9.0802V2.90154H13.3357V9.0802C13.3357 10.7793 11.9455 12.1695 10.2464 12.1695ZM17.4548 5.99087C17.4548 7.32958 16.5898 8.46234 15.3953 8.89484V4.96109H17.4548V5.99087Z" fill="black"/>
</svg>
