<svg width="28" height="27" viewBox="0 0 28 27" fill="none" xmlns="http://www.w3.org/2000/svg">
<path d="M12.6665 17.6204H15.3332V20.287H12.6665V17.6204ZM12.6665 6.95368H15.3332V14.9537H12.6665V6.95368ZM13.9865 0.287018C6.6265 0.287018 0.666504 6.26035 0.666504 13.6204C0.666504 20.9804 6.6265 26.9537 13.9865 26.9537C21.3598 26.9537 27.3332 20.9804 27.3332 13.6204C27.3332 6.26035 21.3598 0.287018 13.9865 0.287018ZM13.9998 24.287C8.10651 24.287 3.33317 19.5137 3.33317 13.6204C3.33317 7.72702 8.10651 2.95368 13.9998 2.95368C19.8932 2.95368 24.6665 7.72702 24.6665 13.6204C24.6665 19.5137 19.8932 24.287 13.9998 24.287Z" fill="white"/>
</svg>
