<svg width="23" height="23" viewBox="0 0 23 23" fill="none" xmlns="http://www.w3.org/2000/svg">
<path d="M11.3083 0.089386C5.22495 0.089386 0.28772 5.02661 0.28772 11.11C0.28772 17.1933 5.22495 22.1306 11.3083 22.1306C17.3917 22.1306 22.3289 17.1933 22.3289 11.11C22.3289 5.02661 17.3917 0.089386 11.3083 0.089386ZM10.2063 19.8493C5.85312 19.3093 2.49184 15.6064 2.49184 11.11C2.49184 10.4267 2.58 9.77649 2.72327 9.13729L8.00214 14.4162V15.5182C8.00214 16.7305 8.99399 17.7223 10.2063 17.7223V19.8493ZM17.8105 17.0501C17.5239 16.1574 16.7084 15.5182 15.7166 15.5182H14.6145V12.212C14.6145 11.6059 14.1186 11.11 13.5124 11.11H6.90008V8.90586H9.1042C9.71033 8.90586 10.2063 8.40993 10.2063 7.8038V5.59968H12.4104C13.6226 5.59968 14.6145 4.60783 14.6145 3.39556V2.94372C17.8435 4.25517 20.1248 7.41808 20.1248 11.11C20.1248 13.4023 19.2431 15.4852 17.8105 17.0501Z" fill="black"/>
</svg>
